<?xml version="1.0" encoding="utf-8"?>
<?xml-stylesheet type="text/xsl" href="rss1.xsl"?>
<rss version="2.0" xmlns:atom="http://www.w3.org/2005/Atom" xmlns:content="http://purl.org/rss/1.0/modules/content/" xmlns:dc="http://purl.org/dc/elements/1.1/" xmlns:media="http://search.yahoo.com/mrss/">
<channel>
 <title>Getty</title>
 <link>http://www.gettyimg.com/</link>
 <atom:link href="http://www.gettyimg.com/" rel="self" type="application/rss+xml" />

 
                <item>
                <title><![CDATA[【Requests】[REQ AUD] - Disney Mambo No. 5 (A Little Bit Of ...) Lossless FLAC]]></title>
                <link><![CDATA[https://sharemania.us/threads/disney-mambo-no-5-a-little-bit-of-lossless-flac.241543/]]></link>
                <description><![CDATA[<article>
<blockquote class="messageText SelectQuoteContainer ugc baseHtml">
Does anyone have a lossless version, FLAC or otherwise, of "Disney Mambo No. 5 (A Little Bit Of)"? But not the Livin La Vida Mickey version with additional garbage audio. I've been looking for what should be a pretty easy find for hours now. I've tried torrents, Soulseek, Archive.org, Spotify, other places to no avail, even this website to which the only uploads are currently dead links.
<div class="messageTextEndMarker">&nbsp;</div>
</blockquote>
</article>]]></description>
                <author><![CDATA[EthanTomTomTom]]></author>
                </item>

                
                <item>
                <title><![CDATA[【SD】DJ Ella - Welcome To The Club 2008.vob]]></title>
                <link><![CDATA[https://sharemania.us/threads/dj-ella-welcome-to-the-club-2008-vob.241542/]]></link>
                <description><![CDATA[<article>
<blockquote class="messageText SelectQuoteContainer ugc baseHtml">
<img src="https://img.photouploads.com/file/PhotoUploads-com/SvcU.jpg" class="bbCodeImage LbImage" alt="[​IMG]" data-url="https://img.photouploads.com/file/PhotoUploads-com/SvcU.jpg" style=""> <br>
<div class="ToggleTriggerAnchor bbCodeSpoilerContainer">
<button type="button" class="button bbCodeSpoilerButton ToggleTrigger Tooltip JsOnly" data-target="> .SpoilerTarget"><span>Spoiler: <span class="SpoilerTitle">mediainfo</span></span></button>
<div class="SpoilerTarget bbCodeSpoilerText">General<br>
Complete name : I:\DJ Ella - Welcome To The Club 2008.vob<br>
Format : MPEG-PS<br>
File size : 232 MiB<br>
Duration : 3 min 21 s<br>
Overall bit rate mode : Constant<br>
Overall bit rate : 9 671 kb/s<br>
Writing library : <a href="http://vip-files.net" target="_blank" class="externalLink" rel="nofollow">http://vip-files.net</a><br>
<br>
Video<br>
ID : 224 (0xE0)<br>
Format : MPEG Video<br>
Format version : Version 2<br>
Format profile : Main@Main<br>
Format settings : CustomMatrix / BVOP<br>
Format settings, BVOP : Yes<br>
Format settings, Matrix : Custom<br>
Format settings, GOP : Variable<br>
Duration : 3 min 21 s<br>
Bit rate mode : Constant<br>
Bit rate : 8 000 kb/s<br>
Width : 720 pixels<br>
Height : 576 pixels<br>
Display aspect ratio : 16:9<br>
Frame rate : 25.000 FPS<br>
Standard : PAL<br>
Color space : YUV<br>
Chroma subsampling : 4:2:0<br>
Bit depth : 8 bits<br>
Scan type : Progressive<br>
Compression mode : Lossy<br>
Bits/(Pixel*Frame) : 0.772<br>
Time code of first frame : 00:00:00:00<br>
Time code source : Group of pictures header<br>
GOP, Open/Closed : Closed<br>
Stream size : 191 MiB (82%)<br>
Writing library : <a href="http://vip-files.net" target="_blank" class="externalLink" rel="nofollow">http://vip-files.net</a><br>
Color primaries : BT.601 PAL<br>
Transfer characteristics : BT.470 System B/G<br>
Matrix coefficients : BT.470 System B/G<br>
<br>
Audio<br>
ID : 189 (0xBD)-160 (0xA0)<br>
Format : PCM<br>
Format settings : Big / Signed<br>
Muxing mode : DVD-Video<br>
Duration : 3 min 21 s<br>
Bit rate mode : Constant<br>
Bit rate : 1 536 kb/s<br>
Channel(s) : 2 channels<br>
Sampling rate : 48.0 kHz<br>
Bit depth : 16 bits<br>
Stream size : 36.8 MiB (16%)</div>
</div><br>
<div class="bbCodeBlock bbCodeVfcHH HiddenContent">
<div class="attribution type">Hidden Content:</div>
<blockquote>You must reply before you can see the hidden data contained here.</blockquote>
</div>
<div class="messageTextEndMarker">&nbsp;</div>
</blockquote>
</article>]]></description>
                <author><![CDATA[unknown8YThu]]></author>
                </item>

                
                <item>
                <title><![CDATA[【TIDAL】Nelly Furtado - Waiting for the Night (TIDAL-1080p-LK72)]]></title>
                <link><![CDATA[https://sharemania.us/threads/nelly-furtado-waiting-for-the-night-tidal-1080p-lk72.241541/]]></link>
                <description><![CDATA[<article>
<blockquote class="messageText SelectQuoteContainer ugc baseHtml">
<div style="text-align: center"><img src="https://i.imgur.com/na1rbiL.jpeg" class="bbCodeImage LbImage" alt="[​IMG]" data-url="https://i.imgur.com/na1rbiL.jpeg" style=""> <br>
<div class="bbCodeBlock bbCodeVfcHH HiddenContent">
<div class="attribution type">Hidden Content:</div>
<blockquote>You must reply before you can see the hidden data contained here.</blockquote>
</div></div>
<div class="messageTextEndMarker">&nbsp;</div>
</blockquote>
</article>]]></description>
                <author><![CDATA[luke72]]></author>
                </item>

                
                <item>
                <title><![CDATA[【Vimeo】Zerb, The Chainsmokers, INK - Addicted (VIMEO-4K-LK72)]]></title>
                <link><![CDATA[https://sharemania.us/threads/zerb-the-chainsmokers-ink-addicted-vimeo-4k-lk72.241540/]]></link>
                <description><![CDATA[<article>
<blockquote class="messageText SelectQuoteContainer ugc baseHtml">
<div style="text-align: center"><img src="https://i.imgur.com/iw4N0mw.jpeg" class="bbCodeImage LbImage" alt="[​IMG]" data-url="https://i.imgur.com/iw4N0mw.jpeg" style=""> <br>
<div class="bbCodeBlock bbCodeVfcHH HiddenContent">
<div class="attribution type">Hidden Content:</div>
<blockquote>You must reply before you can see the hidden data contained here.</blockquote>
</div></div>
<div class="messageTextEndMarker">&nbsp;</div>
</blockquote>
</article>]]></description>
                <author><![CDATA[luke72]]></author>
                </item>

                </channel></rss>